# xmcd
#
# Track frame offsets:
#	150
#	17945
#	33944
#	51708
#	87894
#	101116
#	119076
#	124631
#	174157
#	195251
#	231404
#	256655
#	295513
#	321135
#
# Disc length: 4592 seconds
#
# Revision: 1
# Processed by: cddbd v1.5.2PL0 Copyright (c) Steve Scherf et al.
# Submitted via: EZCDAudioConverter 2.4.0.1
#
DISCID=bd11ee0e
DTITLE=James King, Heather Harper, Donald McIntyre, Grace Hoffman, Karl Ridder
DTITLE=busch - Chor und Orchester der Bayreuther Festspiele, Rudolf Kempe - Ri
DTITLE=chard Wagner: Lohengrin Live 30 July 1967
DYEAR=1967
DGENRE=Opera (Classical)
TTITLE0=Act II: Introduction 
TTITLE1=Act II: Erhebe dich, Genossin meiner Schmach!
TTITLE2=Act II: Was macht dich in so wilder Klage doch vergeh'n?
TTITLE3=Act II: Du wilde Seherin! Wie willst du doch 
TTITLE4=Act II: Euch Lüften, die mein Klagen
TTITLE5=Act II: Wer ruft? Wie schauerlich und klagend 
TTITLE6=Act II: Entweihte Götter, helft jetzt meiner Rache! 
TTITLE7=Act II: Ortrud, wo bist du? 
TTITLE8=Act II: In Früh'n versammelt uns der Ruf 
TTITLE9=Act II: Des Königs Wort und Will' tu' ich euch kund
TTITLE10=Act II: Gesegnet soll sie schreiten
TTITLE11=Act II: Zurück, Elsa! Nicht länger will ich dulden
TTITLE12=Act II: O König! Trugbetörte Fürsten! Haltet ein! 
TTITLE13=Act II: Welch ein Geheimnis muß der Held bewahren?
EXTD=
EXTT0=
EXTT1=
EXTT2=
EXTT3=
EXTT4=
EXTT5=
EXTT6=
EXTT7=
EXTT8=
EXTT9=
EXTT10=
EXTT11=
EXTT12=
EXTT13=
PLAYORDER=
